<svg id="SvgjsSvg1212" width="476" height="362.00001525878906" xmlns="http://www.w3.org/2000/svg" version="1.1" xmlns:xlink="http://www.w3.org/1999/xlink" xmlns:svgjs="http://svgjs.com/svgjs"><defs id="SvgjsDefs1213"><pattern patternUnits="userSpaceOnUse" id="pattern_mark_0" width="300" height="300"><text style="dominant-baseline: middle; text-anchor: middle;" x="150" y="100" fill="rgba(229,229,229,0.8)" font-size="18" transform="rotate(-45, 150, 150)"></text></pattern><pattern patternUnits="userSpaceOnUse" id="pattern_mark_1" width="300" height="300"><text style="dominant-baseline: middle; text-anchor: middle;" x="150" y="200" fill="rgba(229,229,229,0.8)" font-size="18" transform="rotate(-45, 150, 150)"></text></pattern><marker id="SvgjsMarker1231" markerWidth="18" markerHeight="14" refX="12" refY="7" viewBox="0 0 18 14" orient="auto" markerUnits="userSpaceOnUse" stroke-dasharray="0,0"><path id="SvgjsPath1232" d="M0,0 L18,7 L0,14 L0,0" fill="#323232" stroke="#323232" stroke-width="1"></path></marker><marker id="SvgjsMarker1254" markerWidth="18" markerHeight="14" refX="12" refY="7" viewBox="0 0 18 14" orient="auto" markerUnits="userSpaceOnUse" stroke-dasharray="0,0"><path id="SvgjsPath1255" d="M0,0 L18,7 L0,14 L0,0" fill="#323232" stroke="#323232" stroke-width="1"></path></marker><marker id="SvgjsMarker1301" markerWidth="13" markerHeight="9" refX="9.5" refY="4.5" viewBox="0 0 13 9" orient="auto" markerUnits="userSpaceOnUse" stroke-dasharray="0,0"><path id="SvgjsPath1302" d="M0,0 L13,4.5 L0,9 L0,0" fill="#999999" stroke="#999999" stroke-width="1"></path></marker><marker id="SvgjsMarker1305" markerWidth="13" markerHeight="9" refX="9.5" refY="4.5" viewBox="0 0 13 9" orient="auto" markerUnits="userSpaceOnUse" stroke-dasharray="0,0"><path id="SvgjsPath1306" d="M0,0 L13,4.5 L0,9 L0,0" fill="#999999" stroke="#999999" stroke-width="1"></path></marker><marker id="SvgjsMarker1309" markerWidth="13" markerHeight="9" refX="9.5" refY="4.5" viewBox="0 0 13 9" orient="auto" markerUnits="userSpaceOnUse" stroke-dasharray="0,0"><path id="SvgjsPath1310" d="M0,0 L13,4.5 L0,9 L0,0" fill="#999999" stroke="#999999" stroke-width="1"></path></marker><marker id="SvgjsMarker1313" markerWidth="13" markerHeight="9" refX="9.5" refY="4.5" viewBox="0 0 13 9" orient="auto" markerUnits="userSpaceOnUse" stroke-dasharray="0,0"><path id="SvgjsPath1314" d="M0,0 L13,4.5 L0,9 L0,0" fill="#999999" stroke="#999999" stroke-width="1"></path></marker></defs><rect id="svgbackgroundid" width="476" height="362.00001525878906" fill="#ffffff"></rect><rect id="SvgjsRect1215" width="476" height="362.00001525878906" fill="url(#pattern_mark_0)"></rect><rect id="SvgjsRect1216" width="476" height="362.00001525878906" fill="url(#pattern_mark_1)"></rect><g id="SvgjsG1217" transform="translate(114,83)"><path id="SvgjsPath1218" d="M 13.333333333333334 0L 76.66666666666667 0C 94.44444444444444 0 94.44444444444444 40 76.66666666666667 40L 13.333333333333334 40C -4.444444444444445 40 -4.444444444444445 0 13.333333333333334 0Z" stroke="rgba(50,50,50,1)" stroke-width="2" fill-opacity="1" fill="#ffffff"></path><g id="SvgjsG1219"><text id="SvgjsText1220" font-family="微软雅黑" text-anchor="middle" font-size="13px" width="70px" fill="#323232" font-weight="700" align="middle" lineHeight="125%" anchor="middle" family="微软雅黑" size="13px" weight="700" font-style="" opacity="1" y="9.375" transform="rotate(0)"><tspan id="SvgjsTspan1221" dy="16" x="45"><tspan id="SvgjsTspan1222" style="text-decoration:;">客厅开关</tspan></tspan></text></g></g><g id="SvgjsG1223" transform="translate(114,239)"><path id="SvgjsPath1224" d="M 0 4Q 0 0 4 0L 86 0Q 90 0 90 4L 90 36Q 90 40 86 40L 4 40Q 0 40 0 36Z" stroke="rgba(50,50,50,1)" stroke-width="2" fill-opacity="1" fill="#ffffff"></path><g id="SvgjsG1225"><text id="SvgjsText1226" font-family="微软雅黑" text-anchor="middle" font-size="13px" width="70px" fill="#323232" font-weight="700" align="middle" lineHeight="125%" anchor="middle" family="微软雅黑" size="13px" weight="700" font-style="" opacity="1" y="9.375" transform="rotate(0)"><tspan id="SvgjsTspan1227" dy="16" x="45"><tspan id="SvgjsTspan1228" style="text-decoration:;">客厅灯</tspan></tspan></text></g></g><g id="SvgjsG1229"><path id="SvgjsPath1230" d="M159 124L159 181L159 181L159 232.8" stroke="#323232" stroke-width="4" fill="none" marker-end="url(#SvgjsMarker1231)"></path></g><g id="SvgjsG1233" transform="translate(48,161)"><path id="SvgjsPath1234" d="M 83.33333333333333 0L 100 0L 100 40L 83.33333333333333 40" stroke="rgba(50,50,50,1)" stroke-width="1.5" fill="none"></path><path id="SvgjsPath1235" d="M 0 0L 100 0L 100 40L 0 40Z" stroke="none" fill="none"></path><g id="SvgjsG1236"><text id="SvgjsText1237" font-family="微软雅黑" text-anchor="middle" font-size="13px" width="80px" fill="#777777" font-weight="700" align="middle" lineHeight="125%" anchor="middle" family="微软雅黑" size="13px" weight="700" font-style="" opacity="1" y="9.375" transform="rotate(0)"><tspan id="SvgjsTspan1238" dy="16" x="50"><tspan id="SvgjsTspan1239" style="text-decoration:;">发送开关事件</tspan></tspan></text></g></g><g id="SvgjsG1240" transform="translate(277,83)"><path id="SvgjsPath1241" d="M 13.333333333333334 0L 76.66666666666667 0C 94.44444444444444 0 94.44444444444444 40 76.66666666666667 40L 13.333333333333334 40C -4.444444444444445 40 -4.444444444444445 0 13.333333333333334 0Z" stroke="rgba(50,50,50,1)" stroke-width="2" fill-opacity="1" fill="#ffffff"></path><g id="SvgjsG1242"><text id="SvgjsText1243" font-family="微软雅黑" text-anchor="middle" font-size="13px" width="70px" fill="#323232" font-weight="700" align="middle" lineHeight="125%" anchor="middle" family="微软雅黑" size="13px" weight="700" font-style="" opacity="1" y="9.375" transform="rotate(0)"><tspan id="SvgjsTspan1244" dy="16" x="45"><tspan id="SvgjsTspan1245" style="text-decoration:;">人体传感器</tspan></tspan></text></g></g><g id="SvgjsG1246" transform="translate(277,239)"><path id="SvgjsPath1247" d="M 0 4Q 0 0 4 0L 86 0Q 90 0 90 4L 90 36Q 90 40 86 40L 4 40Q 0 40 0 36Z" stroke="rgba(50,50,50,1)" stroke-width="2" fill-opacity="1" fill="#ffffff"></path><g id="SvgjsG1248"><text id="SvgjsText1249" font-family="微软雅黑" text-anchor="middle" font-size="13px" width="70px" fill="#323232" font-weight="700" align="middle" lineHeight="125%" anchor="middle" family="微软雅黑" size="13px" weight="700" font-style="" opacity="1" y="9.375" transform="rotate(0)"><tspan id="SvgjsTspan1250" dy="16" x="45"><tspan id="SvgjsTspan1251" style="text-decoration:;">玄关灯</tspan></tspan></text></g></g><g id="SvgjsG1252"><path id="SvgjsPath1253" d="M322 124L322 181L322 181L322 232.8" stroke="#323232" stroke-width="4" fill="none" marker-end="url(#SvgjsMarker1254)"></path></g><g id="SvgjsG1256" transform="translate(211,161)"><path id="SvgjsPath1257" d="M 83.33333333333333 0L 100 0L 100 40L 83.33333333333333 40" stroke="rgba(50,50,50,1)" stroke-width="1.5" fill="none"></path><path id="SvgjsPath1258" d="M 0 0L 100 0L 100 40L 0 40Z" stroke="none" fill="none"></path><g id="SvgjsG1259"><text id="SvgjsText1260" font-family="微软雅黑" text-anchor="middle" font-size="13px" width="80px" fill="#777777" font-weight="700" align="middle" lineHeight="125%" anchor="middle" family="微软雅黑" size="13px" weight="700" font-style="" opacity="1" y="9.375" transform="rotate(0)"><tspan id="SvgjsTspan1261" dy="16" x="50"><tspan id="SvgjsTspan1262" style="text-decoration:;">发送开关事件</tspan></tspan></text></g></g><g id="SvgjsG1263" transform="translate(25,25)"><path id="SvgjsPath1264" d="M 0 0L 80 0L 0 0M 0 50L 80 50L 0 50Z" stroke="rgba(50,50,50,1)" stroke-width="1.5" fill-opacity="1" fill="#ffffff"></path><path id="SvgjsPath1265" d="M 0 0L 80 0L 80 50L 0 50L 0 0Z" stroke="none" fill="none"></path><g id="SvgjsG1266"><text id="SvgjsText1267" font-family="微软雅黑" text-anchor="middle" font-size="13px" width="60px" fill="#777777" font-weight="700" align="middle" lineHeight="125%" anchor="middle" family="微软雅黑" size="13px" weight="700" font-style="" opacity="1" y="5.875" transform="rotate(0)"><tspan id="SvgjsTspan1268" dy="16" x="40"><tspan id="SvgjsTspan1269" style="text-decoration:;">当开关被</tspan></tspan><tspan id="SvgjsTspan1270" dy="16" x="40"><tspan id="SvgjsTspan1271" style="text-decoration:;">按下时</tspan></tspan></text></g></g><g id="SvgjsG1272" transform="translate(371,25)"><path id="SvgjsPath1273" d="M 0 0L 80 0L 0 0M 0 50L 80 50L 0 50Z" stroke="rgba(50,50,50,1)" stroke-width="1.5" fill-opacity="1" fill="#ffffff"></path><path id="SvgjsPath1274" d="M 0 0L 80 0L 80 50L 0 50L 0 0Z" stroke="none" fill="none"></path><g id="SvgjsG1275"><text id="SvgjsText1276" font-family="微软雅黑" text-anchor="middle" font-size="13px" width="60px" fill="#777777" font-weight="700" align="middle" lineHeight="125%" anchor="middle" family="微软雅黑" size="13px" weight="700" font-style="" opacity="1" y="5.875" transform="rotate(0)"><tspan id="SvgjsTspan1277" dy="16" x="40"><tspan id="SvgjsTspan1278" style="text-decoration:;">当检测到</tspan></tspan><tspan id="SvgjsTspan1279" dy="16" x="40"><tspan id="SvgjsTspan1280" style="text-decoration:;">人时</tspan></tspan></text></g></g><g id="SvgjsG1281" transform="translate(25,287)"><path id="SvgjsPath1282" d="M 0 0L 80 0L 0 0M 0 50L 80 50L 0 50Z" stroke="rgba(50,50,50,1)" stroke-width="1.5" fill-opacity="1" fill="#ffffff"></path><path id="SvgjsPath1283" d="M 0 0L 80 0L 80 50L 0 50L 0 0Z" stroke="none" fill="none"></path><g id="SvgjsG1284"><text id="SvgjsText1285" font-family="微软雅黑" text-anchor="middle" font-size="13px" width="60px" fill="#777777" font-weight="700" align="middle" lineHeight="125%" anchor="middle" family="微软雅黑" size="13px" weight="700" font-style="" opacity="1" y="5.875" transform="rotate(0)"><tspan id="SvgjsTspan1286" dy="16" x="40"><tspan id="SvgjsTspan1287" style="text-decoration:;">打开客厅</tspan></tspan><tspan id="SvgjsTspan1288" dy="16" x="40"><tspan id="SvgjsTspan1289" style="text-decoration:;">灯</tspan></tspan></text></g></g><g id="SvgjsG1290" transform="translate(371,287)"><path id="SvgjsPath1291" d="M 0 0L 80 0L 0 0M 0 50L 80 50L 0 50Z" stroke="rgba(50,50,50,1)" stroke-width="1.5" fill-opacity="1" fill="#ffffff"></path><path id="SvgjsPath1292" d="M 0 0L 80 0L 80 50L 0 50L 0 0Z" stroke="none" fill="none"></path><g id="SvgjsG1293"><text id="SvgjsText1294" font-family="微软雅黑" text-anchor="middle" font-size="13px" width="60px" fill="#777777" font-weight="700" align="middle" lineHeight="125%" anchor="middle" family="微软雅黑" size="13px" weight="700" font-style="" opacity="1" y="5.875" transform="rotate(0)"><tspan id="SvgjsTspan1295" dy="16" x="40"><tspan id="SvgjsTspan1296" style="text-decoration:;">打开玄关</tspan></tspan><tspan id="SvgjsTspan1297" dy="16" x="40"><tspan id="SvgjsTspan1298" style="text-decoration:;">灯</tspan></tspan></text></g></g><g id="SvgjsG1299"><path id="SvgjsPath1300" d="M105.75 49.59999084472656L159 49.59999084472656L159 80.05000000000001" stroke-dasharray="8,5" stroke="#999999" stroke-width="1.5" fill="none" marker-end="url(#SvgjsMarker1301)"></path></g><g id="SvgjsG1303"><path id="SvgjsPath1304" d="M370.25 50.59999084472656L322 50.59999084472656L322 80.05000000000001" stroke-dasharray="8,5" stroke="#999999" stroke-width="1.5" fill="none" marker-end="url(#SvgjsMarker1305)"></path></g><g id="SvgjsG1307"><path id="SvgjsPath1308" d="M322 280L322 311.8000030517578L368.29999999999995 311.8000030517578" stroke-dasharray="8,5" stroke="#999999" stroke-width="1.5" fill="none" marker-end="url(#SvgjsMarker1309)"></path></g><g id="SvgjsG1311"><path id="SvgjsPath1312" d="M159 280L159 311.8000030517578L107.69999999999999 311.8000030517578" stroke-dasharray="8,5" stroke="#999999" stroke-width="1.5" fill="none" marker-end="url(#SvgjsMarker1313)"></path></g></svg>